<?xml version="1.0" encoding="UTF-8" standalone="no"?>
<!DOCTYPE svg PUBLIC "-//W3C//DTD SVG 1.1//EN" "http://www.w3.org/Graphics/SVG/1.1/DTD/svg11.dtd">
<svg width="100%" height="100%" viewBox="0 0 1000 1000" version="1.1" xmlns="http://www.w3.org/2000/svg" xmlns:xlink="http://www.w3.org/1999/xlink" xml:space="preserve" xmlns:serif="http://www.serif.com/" style="fill-rule:evenodd;clip-rule:evenodd;stroke-linejoin:round;stroke-miterlimit:2;">
    <g transform="matrix(1.99442,0,0,1.99442,-148.621,520.029)">
        <path d="M230.415,100.819C230.415,92.232 223.444,85.261 214.857,85.261L92.536,85.261C83.949,85.261 76.978,92.232 76.978,100.819L76.978,223.14C76.978,231.726 83.949,238.698 92.536,238.698L214.857,238.698C223.444,238.698 230.415,231.726 230.415,223.14L230.415,100.819Z" style="fill:rgb(222,107,116);"/>
    </g>
    <g transform="matrix(1.99442,0,0,1.99442,193.465,520.029)">
        <path d="M230.415,100.819C230.415,92.232 223.444,85.261 214.857,85.261L92.536,85.261C83.949,85.261 76.978,92.232 76.978,100.819L76.978,223.14C76.978,231.726 83.949,238.698 92.536,238.698L214.857,238.698C223.444,238.698 230.415,231.726 230.415,223.14L230.415,100.819Z" style="fill:rgb(235,234,239);"/>
    </g>
    <g transform="matrix(1.99442,0,0,1.99442,193.944,176.946)">
        <path d="M230.415,100.819C230.415,92.232 223.444,85.261 214.857,85.261L92.536,85.261C83.949,85.261 76.978,92.232 76.978,100.819L76.978,223.14C76.978,231.726 83.949,238.698 92.536,238.698L214.857,238.698C223.444,238.698 230.415,231.726 230.415,223.14L230.415,100.819Z" style="fill:rgb(235,234,239);"/>
    </g>
    <g transform="matrix(1.99442,0,0,1.99442,535.551,520.029)">
        <path d="M230.415,100.819C230.415,92.232 223.444,85.261 214.857,85.261L92.536,85.261C83.949,85.261 76.978,92.232 76.978,100.819L76.978,223.14C76.978,231.726 83.949,238.698 92.536,238.698L214.857,238.698C223.444,238.698 230.415,231.726 230.415,223.14L230.415,100.819Z" style="fill:rgb(152,195,121);"/>
    </g>
    <g transform="matrix(1.99442,0,0,1.99442,535.551,176.946)">
        <path d="M230.415,100.819C230.415,92.232 223.444,85.261 214.857,85.261L92.536,85.261C83.949,85.261 76.978,92.232 76.978,100.819L76.978,223.14C76.978,231.726 83.949,238.698 92.536,238.698L214.857,238.698C223.444,238.698 230.415,231.726 230.415,223.14L230.415,100.819Z" style="fill:rgb(152,195,121);"/>
    </g>
    <g transform="matrix(1.99442,0,0,1.99442,535.551,-166.137)">
        <path d="M230.415,100.819C230.415,92.232 223.444,85.261 214.857,85.261L92.536,85.261C83.949,85.261 76.978,92.232 76.978,100.819L76.978,223.14C76.978,231.726 83.949,238.698 92.536,238.698L214.857,238.698C223.444,238.698 230.415,231.726 230.415,223.14L230.415,100.819Z" style="fill:rgb(152,195,121);"/>
    </g>
</svg>
